<?xml version="1.0" encoding="UTF-8"?>
<svg xmlns="http://www.w3.org/2000/svg" xmlns:xlink="http://www.w3.org/1999/xlink" viewBox="0 0 256 256" version="1.1">
<g id="surface1">
<path style=" stroke:none;fill-rule:nonzero;fill:white;fill-opacity:1;" d="M 24 32 C 10.75 32 0 42.75 0 56 C 0 63.550781 3.550781 70.648438 9.601562 75.199219 L 118.398438 156.800781 C 124.101562 161.050781 131.898438 161.050781 137.601562 156.800781 L 246.398438 75.199219 C 252.449219 70.648438 256 63.550781 256 56 C 256 42.75 245.25 32 232 32 Z M 0 88 L 0 192 C 0 209.648438 14.351562 224 32 224 L 224 224 C 241.648438 224 256 209.648438 256 192 L 256 88 L 147.199219 169.601562 C 135.800781 178.148438 120.199219 178.148438 108.800781 169.601562 Z M 0 88 "/>
</g>
</svg>
